<mxfile host="app.diagrams.net" modified="2024-02-25T19:00:10.073Z" agent="Mozilla/5.0 (Windows NT 10.0; Win64; x64) AppleWebKit/537.36 (KHTML, like Gecko) Chrome/122.0.0.0 Safari/537.36 Edg/122.0.0.0" etag="qfyiqLflw_Ah1iyDgsYU" version="23.1.6" type="device">
  <diagram name="Page-1" id="2YBvvXClWsGukQMizWep">
    <mxGraphModel dx="2076" dy="742" grid="1" gridSize="10" guides="1" tooltips="1" connect="1" arrows="1" fold="1" page="1" pageScale="1" pageWidth="850" pageHeight="1100" math="0" shadow="0">
      <root>
        <mxCell id="0" />
        <mxCell id="1" parent="0" />
        <mxCell id="-S_qGIgmb2EWVj3ilB9C-5" style="edgeStyle=orthogonalEdgeStyle;rounded=0;orthogonalLoop=1;jettySize=auto;html=1;entryX=1;entryY=0.5;entryDx=0;entryDy=0;" edge="1" parent="1" source="-S_qGIgmb2EWVj3ilB9C-29" target="-S_qGIgmb2EWVj3ilB9C-25">
          <mxGeometry relative="1" as="geometry">
            <mxPoint x="470" y="200" as="targetPoint" />
          </mxGeometry>
        </mxCell>
        <mxCell id="-S_qGIgmb2EWVj3ilB9C-1" value="menu" style="rounded=1;whiteSpace=wrap;html=1;" vertex="1" parent="1">
          <mxGeometry x="670" y="60" width="120" height="60" as="geometry" />
        </mxCell>
        <mxCell id="-S_qGIgmb2EWVj3ilB9C-3" value="" style="ellipse;html=1;shape=startState;fillColor=#000000;strokeColor=#ff0000;" vertex="1" parent="1">
          <mxGeometry x="690" width="30" height="30" as="geometry" />
        </mxCell>
        <mxCell id="-S_qGIgmb2EWVj3ilB9C-4" value="" style="edgeStyle=orthogonalEdgeStyle;html=1;verticalAlign=bottom;endArrow=open;endSize=8;strokeColor=#ff0000;rounded=0;entryX=0.5;entryY=0;entryDx=0;entryDy=0;" edge="1" source="-S_qGIgmb2EWVj3ilB9C-3" parent="1" target="-S_qGIgmb2EWVj3ilB9C-1">
          <mxGeometry relative="1" as="geometry">
            <mxPoint x="400" y="160" as="targetPoint" />
          </mxGeometry>
        </mxCell>
        <mxCell id="-S_qGIgmb2EWVj3ilB9C-17" style="edgeStyle=orthogonalEdgeStyle;rounded=0;orthogonalLoop=1;jettySize=auto;html=1;entryX=0.5;entryY=0;entryDx=0;entryDy=0;" edge="1" parent="1" source="-S_qGIgmb2EWVj3ilB9C-18" target="-S_qGIgmb2EWVj3ilB9C-28">
          <mxGeometry relative="1" as="geometry">
            <mxPoint x="140" y="125" as="targetPoint" />
          </mxGeometry>
        </mxCell>
        <mxCell id="-S_qGIgmb2EWVj3ilB9C-18" value="starteasyGame()" style="rounded=1;whiteSpace=wrap;html=1;" vertex="1" parent="1">
          <mxGeometry x="245" y="50" width="120" height="60" as="geometry" />
        </mxCell>
        <mxCell id="-S_qGIgmb2EWVj3ilB9C-19" style="edgeStyle=orthogonalEdgeStyle;rounded=0;orthogonalLoop=1;jettySize=auto;html=1;" edge="1" parent="1" source="-S_qGIgmb2EWVj3ilB9C-20" target="-S_qGIgmb2EWVj3ilB9C-28">
          <mxGeometry relative="1" as="geometry">
            <mxPoint x="205" y="170" as="targetPoint" />
          </mxGeometry>
        </mxCell>
        <mxCell id="-S_qGIgmb2EWVj3ilB9C-20" value="startmediumGame()" style="rounded=1;whiteSpace=wrap;html=1;" vertex="1" parent="1">
          <mxGeometry x="245" y="140" width="120" height="60" as="geometry" />
        </mxCell>
        <mxCell id="-S_qGIgmb2EWVj3ilB9C-21" value="starthardGame()" style="rounded=1;whiteSpace=wrap;html=1;" vertex="1" parent="1">
          <mxGeometry x="219" y="240" width="120" height="60" as="geometry" />
        </mxCell>
        <mxCell id="-S_qGIgmb2EWVj3ilB9C-22" style="edgeStyle=orthogonalEdgeStyle;rounded=0;orthogonalLoop=1;jettySize=auto;html=1;entryX=0.5;entryY=1;entryDx=0;entryDy=0;" edge="1" parent="1" source="-S_qGIgmb2EWVj3ilB9C-21" target="-S_qGIgmb2EWVj3ilB9C-28">
          <mxGeometry relative="1" as="geometry">
            <mxPoint x="165" y="183" as="targetPoint" />
          </mxGeometry>
        </mxCell>
        <mxCell id="-S_qGIgmb2EWVj3ilB9C-23" style="edgeStyle=orthogonalEdgeStyle;rounded=0;orthogonalLoop=1;jettySize=auto;html=1;entryX=1;entryY=0.75;entryDx=0;entryDy=0;" edge="1" parent="1" source="-S_qGIgmb2EWVj3ilB9C-25" target="-S_qGIgmb2EWVj3ilB9C-20">
          <mxGeometry relative="1" as="geometry" />
        </mxCell>
        <mxCell id="-S_qGIgmb2EWVj3ilB9C-24" style="edgeStyle=orthogonalEdgeStyle;rounded=0;orthogonalLoop=1;jettySize=auto;html=1;" edge="1" parent="1" source="-S_qGIgmb2EWVj3ilB9C-25" target="-S_qGIgmb2EWVj3ilB9C-18">
          <mxGeometry relative="1" as="geometry">
            <Array as="points">
              <mxPoint x="425" y="65" />
            </Array>
          </mxGeometry>
        </mxCell>
        <mxCell id="-S_qGIgmb2EWVj3ilB9C-25" value="" style="rhombus;whiteSpace=wrap;html=1;" vertex="1" parent="1">
          <mxGeometry x="405" y="170" width="40" height="25" as="geometry" />
        </mxCell>
        <mxCell id="-S_qGIgmb2EWVj3ilB9C-26" value="" style="edgeStyle=segmentEdgeStyle;endArrow=classic;html=1;curved=0;rounded=0;endSize=8;startSize=8;entryX=1;entryY=0.424;entryDx=0;entryDy=0;entryPerimeter=0;exitX=0.5;exitY=1;exitDx=0;exitDy=0;" edge="1" parent="1" source="-S_qGIgmb2EWVj3ilB9C-25" target="-S_qGIgmb2EWVj3ilB9C-21">
          <mxGeometry width="50" height="50" relative="1" as="geometry">
            <mxPoint x="365" y="305" as="sourcePoint" />
            <mxPoint x="415" y="255" as="targetPoint" />
            <Array as="points">
              <mxPoint x="425" y="275" />
              <mxPoint x="335" y="275" />
              <mxPoint x="335" y="265" />
            </Array>
          </mxGeometry>
        </mxCell>
        <mxCell id="-S_qGIgmb2EWVj3ilB9C-28" value="startDoodleGame(const std::string&amp;amp; mylevel)" style="rounded=1;whiteSpace=wrap;html=1;" vertex="1" parent="1">
          <mxGeometry x="30" y="50" width="130" height="60" as="geometry" />
        </mxCell>
        <mxCell id="-S_qGIgmb2EWVj3ilB9C-31" value="" style="edgeStyle=orthogonalEdgeStyle;rounded=0;orthogonalLoop=1;jettySize=auto;html=1;entryX=1;entryY=0.5;entryDx=0;entryDy=0;" edge="1" parent="1" source="-S_qGIgmb2EWVj3ilB9C-1" target="-S_qGIgmb2EWVj3ilB9C-29">
          <mxGeometry relative="1" as="geometry">
            <mxPoint x="445" y="183" as="targetPoint" />
            <mxPoint x="670" y="90" as="sourcePoint" />
          </mxGeometry>
        </mxCell>
        <mxCell id="-S_qGIgmb2EWVj3ilB9C-32" style="edgeStyle=orthogonalEdgeStyle;rounded=0;orthogonalLoop=1;jettySize=auto;html=1;" edge="1" parent="1" source="-S_qGIgmb2EWVj3ilB9C-29" target="-S_qGIgmb2EWVj3ilB9C-33">
          <mxGeometry relative="1" as="geometry">
            <mxPoint x="560" y="280" as="targetPoint" />
          </mxGeometry>
        </mxCell>
        <mxCell id="-S_qGIgmb2EWVj3ilB9C-29" value="" style="rhombus;whiteSpace=wrap;html=1;" vertex="1" parent="1">
          <mxGeometry x="540" y="170" width="40" height="25" as="geometry" />
        </mxCell>
        <mxCell id="-S_qGIgmb2EWVj3ilB9C-33" value="" style="ellipse;html=1;shape=endState;fillColor=#000000;strokeColor=#ff0000;" vertex="1" parent="1">
          <mxGeometry x="545" y="230" width="30" height="30" as="geometry" />
        </mxCell>
        <mxCell id="-S_qGIgmb2EWVj3ilB9C-86" style="edgeStyle=orthogonalEdgeStyle;rounded=0;orthogonalLoop=1;jettySize=auto;html=1;" edge="1" parent="1" source="-S_qGIgmb2EWVj3ilB9C-36" target="-S_qGIgmb2EWVj3ilB9C-65">
          <mxGeometry relative="1" as="geometry">
            <mxPoint x="-290" y="530" as="targetPoint" />
          </mxGeometry>
        </mxCell>
        <mxCell id="-S_qGIgmb2EWVj3ilB9C-36" value="&amp;nbsp;RunGame (.....)" style="rounded=1;whiteSpace=wrap;html=1;" vertex="1" parent="1">
          <mxGeometry x="-300" y="390" width="240" height="90" as="geometry" />
        </mxCell>
        <mxCell id="-S_qGIgmb2EWVj3ilB9C-44" value="Mylevel" style="rhombus;whiteSpace=wrap;html=1;fontColor=#000000;fillColor=#ffffc0;strokeColor=#ff0000;" vertex="1" parent="1">
          <mxGeometry x="-200" y="80" width="80" height="40" as="geometry" />
        </mxCell>
        <mxCell id="-S_qGIgmb2EWVj3ilB9C-45" value="Easy" style="edgeStyle=orthogonalEdgeStyle;html=1;align=left;verticalAlign=bottom;endArrow=open;endSize=8;strokeColor=#ff0000;rounded=0;" edge="1" source="-S_qGIgmb2EWVj3ilB9C-44" parent="1" target="-S_qGIgmb2EWVj3ilB9C-51">
          <mxGeometry x="-1" relative="1" as="geometry">
            <mxPoint x="-40" y="150" as="targetPoint" />
          </mxGeometry>
        </mxCell>
        <mxCell id="-S_qGIgmb2EWVj3ilB9C-46" value="Medium" style="edgeStyle=orthogonalEdgeStyle;html=1;align=left;verticalAlign=top;endArrow=open;endSize=8;strokeColor=#ff0000;rounded=0;" edge="1" source="-S_qGIgmb2EWVj3ilB9C-44" parent="1" target="-S_qGIgmb2EWVj3ilB9C-50">
          <mxGeometry x="-1" relative="1" as="geometry">
            <mxPoint x="-180" y="230" as="targetPoint" />
          </mxGeometry>
        </mxCell>
        <mxCell id="-S_qGIgmb2EWVj3ilB9C-48" value="Else" style="edgeStyle=orthogonalEdgeStyle;html=1;align=left;verticalAlign=bottom;endArrow=open;endSize=8;strokeColor=#ff0000;rounded=0;exitX=0;exitY=0.5;exitDx=0;exitDy=0;" edge="1" parent="1" source="-S_qGIgmb2EWVj3ilB9C-44" target="-S_qGIgmb2EWVj3ilB9C-49">
          <mxGeometry x="-1" relative="1" as="geometry">
            <mxPoint x="-30" y="160" as="targetPoint" />
            <mxPoint x="-130" y="160" as="sourcePoint" />
          </mxGeometry>
        </mxCell>
        <mxCell id="-S_qGIgmb2EWVj3ilB9C-54" style="edgeStyle=orthogonalEdgeStyle;rounded=0;orthogonalLoop=1;jettySize=auto;html=1;" edge="1" parent="1" source="-S_qGIgmb2EWVj3ilB9C-49" target="-S_qGIgmb2EWVj3ilB9C-36">
          <mxGeometry relative="1" as="geometry" />
        </mxCell>
        <mxCell id="-S_qGIgmb2EWVj3ilB9C-49" value="void playLevel(MovingPlatform&amp;amp; Blue_Platform, WhitePlatform&amp;amp; White_Platform, Platform&amp;amp; Green_Platform, ExtremePlatform&amp;amp; Yellow_Platfrom)" style="rounded=1;whiteSpace=wrap;html=1;" vertex="1" parent="1">
          <mxGeometry x="-400" y="140" width="120" height="140" as="geometry" />
        </mxCell>
        <mxCell id="-S_qGIgmb2EWVj3ilB9C-55" style="edgeStyle=orthogonalEdgeStyle;rounded=0;orthogonalLoop=1;jettySize=auto;html=1;entryX=0.5;entryY=0;entryDx=0;entryDy=0;" edge="1" parent="1" source="-S_qGIgmb2EWVj3ilB9C-50" target="-S_qGIgmb2EWVj3ilB9C-36">
          <mxGeometry relative="1" as="geometry" />
        </mxCell>
        <mxCell id="-S_qGIgmb2EWVj3ilB9C-50" value="void playLevel(Platform&amp;amp; Green_Platform, WhitePlatform&amp;amp; White_Platform)" style="rounded=1;whiteSpace=wrap;html=1;" vertex="1" parent="1">
          <mxGeometry x="-240" y="230" width="120" height="80" as="geometry" />
        </mxCell>
        <mxCell id="-S_qGIgmb2EWVj3ilB9C-56" style="edgeStyle=orthogonalEdgeStyle;rounded=0;orthogonalLoop=1;jettySize=auto;html=1;" edge="1" parent="1" source="-S_qGIgmb2EWVj3ilB9C-51" target="-S_qGIgmb2EWVj3ilB9C-36">
          <mxGeometry relative="1" as="geometry" />
        </mxCell>
        <mxCell id="-S_qGIgmb2EWVj3ilB9C-51" value="void playLevel(Platform&amp;amp; Green_Platform)" style="rounded=1;whiteSpace=wrap;html=1;" vertex="1" parent="1">
          <mxGeometry x="-110" y="190.0000000000001" width="120" height="60" as="geometry" />
        </mxCell>
        <mxCell id="-S_qGIgmb2EWVj3ilB9C-52" style="edgeStyle=orthogonalEdgeStyle;rounded=0;orthogonalLoop=1;jettySize=auto;html=1;exitX=0.75;exitY=0;exitDx=0;exitDy=0;entryX=0.912;entryY=-0.058;entryDx=0;entryDy=0;entryPerimeter=0;" edge="1" parent="1" source="-S_qGIgmb2EWVj3ilB9C-36" target="-S_qGIgmb2EWVj3ilB9C-36">
          <mxGeometry relative="1" as="geometry" />
        </mxCell>
        <mxCell id="-S_qGIgmb2EWVj3ilB9C-53" style="edgeStyle=orthogonalEdgeStyle;rounded=0;orthogonalLoop=1;jettySize=auto;html=1;entryX=0.64;entryY=0.11;entryDx=0;entryDy=0;entryPerimeter=0;" edge="1" parent="1" source="-S_qGIgmb2EWVj3ilB9C-28" target="-S_qGIgmb2EWVj3ilB9C-44">
          <mxGeometry relative="1" as="geometry" />
        </mxCell>
        <mxCell id="-S_qGIgmb2EWVj3ilB9C-91" style="edgeStyle=orthogonalEdgeStyle;rounded=0;orthogonalLoop=1;jettySize=auto;html=1;" edge="1" parent="1" source="-S_qGIgmb2EWVj3ilB9C-65">
          <mxGeometry relative="1" as="geometry">
            <mxPoint x="-670" y="450" as="targetPoint" />
          </mxGeometry>
        </mxCell>
        <mxCell id="-S_qGIgmb2EWVj3ilB9C-65" value="isKeyPressed(sf::Keyboard::Tab)" style="rhombus;whiteSpace=wrap;html=1;fontColor=#000000;fillColor=#ffffc0;strokeColor=#ff0000;" vertex="1" parent="1">
          <mxGeometry x="-620" y="480" width="290" height="40" as="geometry" />
        </mxCell>
        <mxCell id="-S_qGIgmb2EWVj3ilB9C-67" value="no" style="edgeStyle=orthogonalEdgeStyle;html=1;align=left;verticalAlign=top;endArrow=open;endSize=8;strokeColor=#ff0000;rounded=0;" edge="1" source="-S_qGIgmb2EWVj3ilB9C-65" parent="1" target="-S_qGIgmb2EWVj3ilB9C-81">
          <mxGeometry x="-1" relative="1" as="geometry">
            <mxPoint x="-390" y="580" as="targetPoint" />
          </mxGeometry>
        </mxCell>
        <mxCell id="-S_qGIgmb2EWVj3ilB9C-68" value="" style="line;strokeWidth=4;html=1;perimeter=backbonePerimeter;points=[];outlineConnect=0;" vertex="1" parent="1">
          <mxGeometry x="-450" y="710" width="580" height="10" as="geometry" />
        </mxCell>
        <mxCell id="-S_qGIgmb2EWVj3ilB9C-69" value="" style="endArrow=classic;html=1;rounded=0;" edge="1" parent="1" source="-S_qGIgmb2EWVj3ilB9C-68" target="-S_qGIgmb2EWVj3ilB9C-71">
          <mxGeometry width="50" height="50" relative="1" as="geometry">
            <mxPoint x="90" y="850" as="sourcePoint" />
            <mxPoint x="140" y="800" as="targetPoint" />
          </mxGeometry>
        </mxCell>
        <mxCell id="-S_qGIgmb2EWVj3ilB9C-70" value="drawPlatforms()" style="rounded=1;whiteSpace=wrap;html=1;" vertex="1" parent="1">
          <mxGeometry x="-20" y="850" width="130" height="50" as="geometry" />
        </mxCell>
        <mxCell id="-S_qGIgmb2EWVj3ilB9C-71" value="draw()" style="rounded=1;whiteSpace=wrap;html=1;" vertex="1" parent="1">
          <mxGeometry x="-170" y="850" width="130" height="50" as="geometry" />
        </mxCell>
        <mxCell id="-S_qGIgmb2EWVj3ilB9C-72" value="setPosition()" style="rounded=1;whiteSpace=wrap;html=1;" vertex="1" parent="1">
          <mxGeometry x="-320" y="850" width="130" height="50" as="geometry" />
        </mxCell>
        <mxCell id="-S_qGIgmb2EWVj3ilB9C-73" value="" style="endArrow=classic;html=1;rounded=0;" edge="1" parent="1" source="-S_qGIgmb2EWVj3ilB9C-68" target="-S_qGIgmb2EWVj3ilB9C-70">
          <mxGeometry width="50" height="50" relative="1" as="geometry">
            <mxPoint x="-134" y="786" as="sourcePoint" />
            <mxPoint x="-134" y="890" as="targetPoint" />
          </mxGeometry>
        </mxCell>
        <mxCell id="-S_qGIgmb2EWVj3ilB9C-74" value="" style="endArrow=classic;html=1;rounded=0;" edge="1" parent="1" source="-S_qGIgmb2EWVj3ilB9C-68" target="-S_qGIgmb2EWVj3ilB9C-72">
          <mxGeometry width="50" height="50" relative="1" as="geometry">
            <mxPoint x="-124" y="796" as="sourcePoint" />
            <mxPoint x="-124" y="900" as="targetPoint" />
          </mxGeometry>
        </mxCell>
        <mxCell id="-S_qGIgmb2EWVj3ilB9C-75" value="" style="endArrow=classic;html=1;rounded=0;" edge="1" parent="1" source="-S_qGIgmb2EWVj3ilB9C-68" target="-S_qGIgmb2EWVj3ilB9C-76">
          <mxGeometry width="50" height="50" relative="1" as="geometry">
            <mxPoint x="-184" y="850" as="sourcePoint" />
            <mxPoint x="80" y="874" as="targetPoint" />
          </mxGeometry>
        </mxCell>
        <mxCell id="-S_qGIgmb2EWVj3ilB9C-76" value="createBomb()" style="rounded=1;whiteSpace=wrap;html=1;" vertex="1" parent="1">
          <mxGeometry x="-245" y="935" width="130" height="50" as="geometry" />
        </mxCell>
        <mxCell id="-S_qGIgmb2EWVj3ilB9C-77" value="" style="endArrow=classic;html=1;rounded=0;" edge="1" parent="1" source="-S_qGIgmb2EWVj3ilB9C-68" target="-S_qGIgmb2EWVj3ilB9C-78">
          <mxGeometry width="50" height="50" relative="1" as="geometry">
            <mxPoint x="-44" y="850" as="sourcePoint" />
            <mxPoint x="220" y="874" as="targetPoint" />
          </mxGeometry>
        </mxCell>
        <mxCell id="-S_qGIgmb2EWVj3ilB9C-78" value="Teleport()" style="rounded=1;whiteSpace=wrap;html=1;" vertex="1" parent="1">
          <mxGeometry x="-60" y="935" width="130" height="50" as="geometry" />
        </mxCell>
        <mxCell id="-S_qGIgmb2EWVj3ilB9C-79" value="" style="endArrow=classic;html=1;rounded=0;" edge="1" parent="1" source="-S_qGIgmb2EWVj3ilB9C-68" target="-S_qGIgmb2EWVj3ilB9C-80">
          <mxGeometry width="50" height="50" relative="1" as="geometry">
            <mxPoint x="-304" y="850" as="sourcePoint" />
            <mxPoint x="-40" y="874" as="targetPoint" />
          </mxGeometry>
        </mxCell>
        <mxCell id="-S_qGIgmb2EWVj3ilB9C-80" value="TurnDown()" style="rounded=1;whiteSpace=wrap;html=1;" vertex="1" parent="1">
          <mxGeometry x="-390" y="790" width="130" height="50" as="geometry" />
        </mxCell>
        <mxCell id="-S_qGIgmb2EWVj3ilB9C-101" style="edgeStyle=orthogonalEdgeStyle;rounded=0;orthogonalLoop=1;jettySize=auto;html=1;entryX=0;entryY=0.5;entryDx=0;entryDy=0;exitX=1;exitY=0;exitDx=0;exitDy=0;" edge="1" parent="1" source="-S_qGIgmb2EWVj3ilB9C-81" target="-S_qGIgmb2EWVj3ilB9C-100">
          <mxGeometry relative="1" as="geometry" />
        </mxCell>
        <mxCell id="-S_qGIgmb2EWVj3ilB9C-81" value="gameover" style="rhombus;whiteSpace=wrap;html=1;fontColor=#000000;fillColor=#ffffc0;strokeColor=#ff0000;" vertex="1" parent="1">
          <mxGeometry x="-530" y="600" width="140" height="40" as="geometry" />
        </mxCell>
        <mxCell id="-S_qGIgmb2EWVj3ilB9C-90" value="[gamePaused = false]" style="text;html=1;align=center;verticalAlign=middle;resizable=0;points=[];autosize=1;strokeColor=none;fillColor=none;" vertex="1" parent="1">
          <mxGeometry x="-430" y="440" width="140" height="30" as="geometry" />
        </mxCell>
        <mxCell id="-S_qGIgmb2EWVj3ilB9C-92" value="isKeyPressed(sf::Keyboard::Tab)" style="rhombus;whiteSpace=wrap;html=1;fontColor=#000000;fillColor=#ffffc0;strokeColor=#ff0000;" vertex="1" parent="1">
          <mxGeometry x="-820" y="410" width="290" height="40" as="geometry" />
        </mxCell>
        <mxCell id="-S_qGIgmb2EWVj3ilB9C-93" value="[gamePaused = true]" style="text;html=1;align=center;verticalAlign=middle;resizable=0;points=[];autosize=1;strokeColor=none;fillColor=none;" vertex="1" parent="1">
          <mxGeometry x="-805" y="470" width="140" height="30" as="geometry" />
        </mxCell>
        <mxCell id="-S_qGIgmb2EWVj3ilB9C-95" style="edgeStyle=orthogonalEdgeStyle;rounded=0;orthogonalLoop=1;jettySize=auto;html=1;entryX=0.003;entryY=0.338;entryDx=0;entryDy=0;entryPerimeter=0;" edge="1" parent="1" source="-S_qGIgmb2EWVj3ilB9C-92" target="-S_qGIgmb2EWVj3ilB9C-36">
          <mxGeometry relative="1" as="geometry" />
        </mxCell>
        <mxCell id="-S_qGIgmb2EWVj3ilB9C-97" value="Active" style="shape=umlFrame;whiteSpace=wrap;html=1;pointerEvents=0;" vertex="1" parent="1">
          <mxGeometry x="-840" y="360" width="1240" height="680" as="geometry" />
        </mxCell>
        <mxCell id="-S_qGIgmb2EWVj3ilB9C-98" value="no" style="edgeStyle=orthogonalEdgeStyle;html=1;align=left;verticalAlign=top;endArrow=open;endSize=8;strokeColor=#ff0000;rounded=0;" edge="1" parent="1" target="-S_qGIgmb2EWVj3ilB9C-68">
          <mxGeometry x="-1" relative="1" as="geometry">
            <mxPoint x="-375" y="700" as="targetPoint" />
            <mxPoint x="-390" y="620" as="sourcePoint" />
          </mxGeometry>
        </mxCell>
        <mxCell id="-S_qGIgmb2EWVj3ilB9C-102" style="edgeStyle=orthogonalEdgeStyle;rounded=0;orthogonalLoop=1;jettySize=auto;html=1;exitX=1;exitY=0.5;exitDx=0;exitDy=0;" edge="1" parent="1" source="-S_qGIgmb2EWVj3ilB9C-100" target="-S_qGIgmb2EWVj3ilB9C-1">
          <mxGeometry relative="1" as="geometry" />
        </mxCell>
        <mxCell id="-S_qGIgmb2EWVj3ilB9C-113" style="edgeStyle=orthogonalEdgeStyle;rounded=0;orthogonalLoop=1;jettySize=auto;html=1;exitX=0.5;exitY=1;exitDx=0;exitDy=0;entryX=0;entryY=0.5;entryDx=0;entryDy=0;" edge="1" parent="1" source="-S_qGIgmb2EWVj3ilB9C-100" target="-S_qGIgmb2EWVj3ilB9C-106">
          <mxGeometry relative="1" as="geometry">
            <mxPoint x="-330.00172413793115" y="630.0344827586207" as="sourcePoint" />
            <mxPoint x="-204.94999999999976" y="650" as="targetPoint" />
          </mxGeometry>
        </mxCell>
        <mxCell id="-S_qGIgmb2EWVj3ilB9C-100" value="" style="rhombus;whiteSpace=wrap;html=1;" vertex="1" parent="1">
          <mxGeometry x="-260" y="580" width="30" height="20" as="geometry" />
        </mxCell>
        <mxCell id="-S_qGIgmb2EWVj3ilB9C-103" value="yes" style="text;html=1;align=center;verticalAlign=middle;resizable=0;points=[];autosize=1;strokeColor=none;fillColor=none;" vertex="1" parent="1">
          <mxGeometry x="-430" y="588" width="40" height="30" as="geometry" />
        </mxCell>
        <mxCell id="-S_qGIgmb2EWVj3ilB9C-108" style="edgeStyle=orthogonalEdgeStyle;rounded=0;orthogonalLoop=1;jettySize=auto;html=1;" edge="1" parent="1" source="-S_qGIgmb2EWVj3ilB9C-106" target="-S_qGIgmb2EWVj3ilB9C-107">
          <mxGeometry relative="1" as="geometry" />
        </mxCell>
        <mxCell id="-S_qGIgmb2EWVj3ilB9C-106" value="isKeyPressed(sf::Keyboard::F2)" style="rhombus;whiteSpace=wrap;html=1;fontColor=#000000;fillColor=#ffffc0;strokeColor=#ff0000;" vertex="1" parent="1">
          <mxGeometry x="-205" y="610" width="200" height="40" as="geometry" />
        </mxCell>
        <mxCell id="-S_qGIgmb2EWVj3ilB9C-110" style="edgeStyle=orthogonalEdgeStyle;rounded=0;orthogonalLoop=1;jettySize=auto;html=1;" edge="1" parent="1" source="-S_qGIgmb2EWVj3ilB9C-107" target="-S_qGIgmb2EWVj3ilB9C-36">
          <mxGeometry relative="1" as="geometry" />
        </mxCell>
        <mxCell id="-S_qGIgmb2EWVj3ilB9C-107" value="&amp;nbsp;ResetGame (.....)" style="rounded=1;whiteSpace=wrap;html=1;" vertex="1" parent="1">
          <mxGeometry x="69" y="480" width="150" height="60" as="geometry" />
        </mxCell>
        <mxCell id="-S_qGIgmb2EWVj3ilB9C-117" value="" style="rounded=0;whiteSpace=wrap;html=1;" vertex="1" parent="1">
          <mxGeometry x="-80" y="420" width="20" height="30" as="geometry" />
        </mxCell>
        <mxCell id="-S_qGIgmb2EWVj3ilB9C-119" value="[gameover = false]" style="text;html=1;align=center;verticalAlign=middle;resizable=0;points=[];autosize=1;strokeColor=none;fillColor=none;" vertex="1" parent="1">
          <mxGeometry x="-70" y="400" width="120" height="30" as="geometry" />
        </mxCell>
      </root>
    </mxGraphModel>
  </diagram>
</mxfile>
